:version 1.10
:name ASF
:units
  mass 1
  length 1
  angle deg
:documentation
  ASF file generated by Kaydara
:root
  axis xyz
  order  tx ty tz rx ry rz
  position 0 0 0
  orientation 0 0 0
:bonedata
  begin
    id 1
    name RightUpLegDummy
    direction -0.718183 -0.695806 0.00816078
    length 4.904
    axis 0 0 0 xyz
  end
  begin
    id 2
    name RightUpLeg
    direction -0.0736652 -0.994202 0.0783343
    length 17.4976
    axis -2.72909 -3.00389 -4.00133 xyz
    dof rx ry rz
  end
  begin
    id 3
    name RightLeg
    direction -0.0389037 -0.994596 -0.0962598
    length 16.5821
    axis 3.95836 -18.5909 -4.46993 xyz
    dof rx ry rz
  end
  begin
    id 4
    name RightFoot
    direction -0.311643 -0.412678 0.855906
    length 3.77069
    axis -1.99483 -18.8351 -3.27644 xyz
    dof rx ry rz
  end
  begin
    id 5
    name RightToes
    direction -0.317852 0.0389852 0.947339
    length 3.85082
    axis -2.00228 -18.1713 -3.25211 xyz
    dof rx ry rz
  end
  begin
    id 6
    name SpineDummy
    direction 8.3039e-015 1 4.44677e-016
    length 4.6813
    axis 0 0 0 xyz
  end
  begin
    id 7
    name Spine
    direction -0.000262373 0.999988 0.00493267
    length 10.1015
    axis -0.00246081 0.00062579 0.0150362 xyz
    dof rx ry rz
  end
  begin
    id 8
    name Spine1
    direction 0 0 0
    length 0
    axis -0.00349562 0.000650293 0.0196666 xyz
    dof rx ry rz
  end
  begin
    id 9
    name HEadDummy
    direction -0.000343232 0.999999 0.00123745
    length 3.43865
    axis -0.00349562 0.000650293 0.0196666 xyz
  end
  begin
    id 10
    name HEad
    direction -0.0461221 0.980933 0.188796
    length 5.12695
    axis -0.00351404 -7.04812 0.0199272 xyz
    dof rx ry rz
  end
  begin
    id 11
    name LeftShoulder1Dummy
    direction 0.998904 -0.0399089 -0.0244534
    length 3.5433
    axis -0.00349562 0.000650293 0.0196666 xyz
  end
  begin
    id 12
    name LeftShoulder1
    direction 0.99951 1.64443e-005 0.0312999
    length 4.05031
    axis -0.00349562 0.000650293 0.0196666 xyz
    dof rx ry rz
  end
  begin
    id 13
    name LeftArm
    direction 0.984791 0.0515299 0.165927
    length 12.9126
    axis -64.823 -10.7743 5.20463 xyz
    dof rx ry rz
  end
  begin
    id 14
    name LeftForeArm
    direction 0.984968 0.0534808 0.16425
    length 10.8596
    axis -30.0462 -7.70601 1.87451 xyz
    dof rx ry rz
  end
  begin
    id 15
    name LeftHand
    direction 0.975871 0.0289682 0.216418
    length 6.62295
    axis -20.1348 -6.98077 1.86072 xyz
    dof rx ry rz
  end
  begin
    id 16
    name RightShoulderDummy
    direction -0.998877 -0.0405946 -0.0244307
    length 3.5433
    axis -0.00349562 0.000650293 0.0196666 xyz
  end
  begin
    id 17
    name RightShoulder
    direction -0.998933 -0.0249743 -0.0388558
    length 4.05031
    axis -0.0205316 -4.02113 1.41395 xyz
    dof rx ry rz
  end
  begin
    id 18
    name RightArm
    direction -0.997559 0.068664 0.0127103
    length 12.9638
    axis -67.3882 1.84188 -6.15987 xyz
    dof rx ry rz
  end
  begin
    id 19
    name RightForeArm
    direction -0.991508 0.0912848 0.0926241
    length 10.8312
    axis -22.1975 3.41087 -4.28711 xyz
    dof rx ry rz
  end
  begin
    id 20
    name RightHand
    direction -0.989262 0.0600788 0.133232
    length 6.57864
    axis -12.2911 2.17515 -4.39675 xyz
    dof rx ry rz
  end
  begin
    id 21
    name LeftUpLegDummy
    direction 0.718183 -0.695806 0.00816078
    length 4.904
    axis 0 0 0 xyz
  end
  begin
    id 22
    name LeftUpLeg
    direction 0.0831398 -0.99469 0.0606531
    length 17.4976
    axis -1.71016 2.29552 4.63832 xyz
    dof rx ry rz
  end
  begin
    id 23
    name LeftLeg
    direction 0.0498442 -0.991778 -0.117862
    length 16.5821
    axis 5.13757 15.5727 5.13348 xyz
    dof rx ry rz
  end
  begin
    id 24
    name LeftFoot
    direction 0.269026 -0.433896 0.85986
    length 3.77069
    axis -0.576502 15.6961 4.10267 xyz
    dof rx ry rz
  end
  begin
    id 25
    name LeftToes
    direction 0.277311 0.0251143 0.960452
    length 3.85048
    axis -0.576502 15.6961 4.10267 xyz
    dof rx ry rz
  end
:hierarchy
  begin
    root RightUpLegDummy SpineDummy LeftUpLegDummy
    RightUpLegDummy RightUpLeg
    RightUpLeg RightLeg
    RightLeg RightFoot
    RightFoot RightToes
    SpineDummy Spine
    Spine Spine1
    Spine1 HEadDummy LeftShoulder1Dummy RightShoulderDummy
    HEadDummy HEad
    LeftShoulder1Dummy LeftShoulder1
    LeftShoulder1 LeftArm
    LeftArm LeftForeArm
    LeftForeArm LeftHand
    RightShoulderDummy RightShoulder
    RightShoulder RightArm
    RightArm RightForeArm
    RightForeArm RightHand
    LeftUpLegDummy LeftUpLeg
    LeftUpLeg LeftLeg
    LeftLeg LeftFoot
    LeftFoot LeftToes
  end

:SAMPLES-PER-SECOND 30
:FULLY-SPECIFIED
:DEGREES
117
root  -0.933255 5.84473 15.6203 -49.9708 -3.3155 1.86731
RightUpLeg  -87.9105 -6.61623 -0.571229
RightLeg  96.3963 17.2712 -9.10683
RightFoot  18.4265 2.00508 -7.34167
RightToes  5.82077e-011 -3.18055e-015 -2.98177e-016
Spine  32.7797 4.29259 -0.186065
Spine1  17.5902 0.998315 4.39319
HEad  -16.8411 -4.99218 5.73083
LeftShoulder1  -3.88251e-019 9.70628e-020 -3.87848e-018
LeftArm  -36.0919 77.2726 -80.0877
LeftForeArm  19.8941 -0.588017 -1.95546
LeftHand  -14.2888 -12.0517 81.1422
RightShoulder  5.49062 10.0284 25.7893
RightArm  -4.42167 -58.9184 19.2299
RightForeArm  13.738 -2.29865 -6.81152
RightHand  -9.84726 9.21621 -68.4887
LeftUpLeg  -85.6368 5.25812 0.822692
LeftLeg  92.3061 -14.8566 13.8231
LeftFoot  32.7918 -1.98537 4.91381
LeftToes  5.91571e-011 -3.44359e-011 -3.93244e-011
118
root  -0.943077 5.82326 15.5949 -49.7569 -2.9555 2.18654
RightUpLeg  -87.8328 -6.8149 -1.11031
RightLeg  95.3251 17.424 -10.9188
RightFoot  20.9892 2.22545 -7.50184
RightToes  5.82077e-011 -3.18055e-015 -2.98177e-016
Spine  32.3414 4.22378 -0.150187
Spine1  18.033 0.95135 4.08633
HEad  -16.8795 -4.86167 6.06208
LeftShoulder1  -3.88251e-019 9.70628e-020 -3.87848e-018
LeftArm  -34.9162 77.0283 -78.8644
LeftForeArm  19.9711 -0.593838 -1.97898
LeftHand  -14.3062 -12.0748 81.1345
RightShoulder  5.54737 10.0615 26.0401
RightArm  -5.68066 -58.6611 20.1308
RightForeArm  14.1975 -3.03906 -7.22964
RightHand  -9.86439 9.16569 -68.766
LeftUpLeg  -85.7769 4.87595 0.509148
LeftLeg  92.0701 -14.8278 14.0234
LeftFoot  32.8504 -1.92304 4.76041
LeftToes  5.91571e-011 -3.44359e-011 -3.93244e-011
119
root  -0.96623 5.82647 15.4983 -49.7574 -3.54613 1.87021
RightUpLeg  -87.1429 -6.55332 -0.381808
RightLeg  93.45 17.208 -11.6871
RightFoot  23.7551 2.65837 -8.23158
RightToes  5.82077e-011 -3.18055e-015 -2.98177e-016
Spine  32.5295 4.18017 0.882581
Spine1  17.9516 1.07759 4.20554
HEad  -16.742 -4.72631 6.16832
LeftShoulder1  -3.88251e-019 9.70628e-020 -3.87848e-018
LeftArm  -34.3726 76.8427 -78.2664
LeftForeArm  20.0613 -0.589307 -1.94767
LeftHand  -14.2786 -12.1082 80.912
RightShoulder  5.52038 10.0385 25.9345
RightArm  -6.38276 -58.71 20.7415
RightForeArm  14.4783 -3.29596 -7.48213
RightHand  -9.80505 9.03255 -68.9314
LeftUpLeg  -85.6887 4.80029 1.45703
LeftLeg  91.7927 -14.7627 14.0219
LeftFoot  32.9223 -1.904 4.70786
LeftToes  5.91571e-011 -3.44359e-011 -3.93244e-011
120
root  -1.01457 5.84443 15.4421 -49.7388 -4.02971 1.42809
RightUpLeg  -86.4461 -6.36496 0.39517
RightLeg  92.6515 17.0373 -11.5596
RightFoot  26.0975 3.03502 -8.78758
RightToes  5.82077e-011 -3.18055e-015 -2.98177e-016
Spine  32.8275 4.11738 1.76536
Spine1  17.5875 1.18865 4.4078
HEad  -16.2438 -4.43385 6.29844
LeftShoulder1  -3.88251e-019 9.70628e-020 -3.87848e-018
LeftArm  -33.68 76.6447 -77.5131
LeftForeArm  20.2903 -0.588026 -1.92105
LeftHand  -14.1193 -12.0428 80.4897
RightShoulder  5.41259 9.97983 25.4486
RightArm  -6.32378 -59.3259 21.0038
RightForeArm  13.8977 -2.93373 -7.39434
RightHand  -9.67092 8.79365 -69.0824
LeftUpLeg  -85.6329 4.69291 2.411
LeftLeg  91.6511 -14.7233 13.9695
LeftFoot  32.9685 -1.86975 4.62248
LeftToes  5.91571e-011 -3.44359e-011 -3.93244e-011
121
root  -1.06664 5.87181 15.4351 -49.3889 -4.05121 1.35425
RightUpLeg  -86.4593 -6.30587 0.621259
RightLeg  92.6016 17.0061 -11.3934
RightFoot  27.6027 3.11745 -8.67166
RightToes  5.82077e-011 -3.18055e-015 -2.98177e-016
Spine  32.627 4.02935 2.08825
Spine1  17.4667 1.28692 4.1649
HEad  -15.7646 -4.1287 6.6491
LeftShoulder1  -3.88251e-019 9.70628e-020 -3.87848e-018
LeftArm  -32.4972 76.3263 -76.1753
LeftForeArm  20.6445 -0.593556 -1.91856
LeftHand  -13.9155 -11.9092 80.1088
RightShoulder  5.31815 9.94662 24.9851
RightArm  -5.82694 -60.229 21.1167
RightForeArm  12.4312 -2.06637 -7.10967
RightHand  -9.41218 8.34651 -69.3338
LeftUpLeg  -85.8699 4.55044 2.69574
LeftLeg  91.552 -14.6972 13.9409
LeftFoot  33.107 -1.79273 4.42777
LeftToes  5.91571e-011 -3.44359e-011 -3.93244e-011
122
root  -1.1037 5.89704 15.4153 -48.9904 -4.1382 1.5394
RightUpLeg  -86.8241 -6.07993 0.744838
RightLeg  92.3396 16.9803 -11.5756
RightFoot  27.9873 3.04516 -8.39532
RightToes  5.82077e-011 -3.18055e-015 -2.98177e-016
Spine  32.1224 3.93761 2.39381
Spine1  17.8849 1.48724 3.53946
HEad  -15.8182 -3.88176 7.09577
LeftShoulder1  -3.88251e-019 9.70628e-020 -3.87848e-018
LeftArm  -31.2418 75.9181 -74.8046
LeftForeArm  20.7995 -0.605043 -1.96434
LeftHand  -13.8188 -11.8408 79.9417
RightShoulder  5.26672 9.94077 24.7084
RightArm  -5.73829 -60.9678 21.6263
RightForeArm  11.0499 -1.19013 -6.98392
RightHand  -9.08218 7.81665 -69.5123
LeftUpLeg  -86.1092 4.59062 2.83908
LeftLeg  91.3974 -14.6564 13.8941
LeftFoot  33.3495 -1.71454 4.22158
LeftToes  5.91571e-011 -3.44359e-011 -3.93244e-011
123
root  -1.1277 5.90099 15.3763 -49.0499 -4.42707 1.69794
RightUpLeg  -86.7906 -5.7761 0.994735
RightLeg  91.9811 16.9492 -11.8735
RightFoot  27.7479 3.04156 -8.43691
RightToes  5.82077e-011 -3.18055e-015 -2.98177e-016
Spine  31.9764 3.85953 2.84807
Spine1  18.4671 1.71405 3.05923
HEad  -16.1159 -3.52574 7.45526
LeftShoulder1  -3.88251e-019 9.70628e-020 -3.87848e-018
LeftArm  -30.2071 75.6518 -73.9265
LeftForeArm  20.5823 -0.627149 -2.09826
LeftHand  -13.8671 -11.8991 79.9442
RightShoulder  5.22172 9.91851 24.4977
RightArm  -6.47125 -61.2991 22.6434
RightForeArm  10.663 -0.948378 -7.13645
RightHand  -8.92933 7.59263 -69.5134
LeftUpLeg  -85.9274 4.74287 3.16536
LeftLeg  91.2809 -14.6261 13.8622
LeftFoot  33.501 -1.66493 4.09223
LeftToes  5.91571e-011 -3.44359e-011 -3.93244e-011
